<svg width="1515" height="993" viewBox="0 0 1515 993" fill="none" xmlns="http://www.w3.org/2000/svg">
<path d="M198.928 730.988C164.154 720.273 158.53 673.42 189.78 654.779L1174.2 67.5753C1191.86 57.0382 1214.56 60.8449 1227.82 76.5687L1371.83 247.323C1388.49 267.08 1383.52 297.055 1361.38 310.384L373.095 905.273C345.102 922.123 309.436 901.963 309.435 869.29L309.433 796.043C309.433 777.611 297.415 761.333 279.8 755.906L198.928 730.988Z" fill="#88A68D"/>
<path d="M603.394 555.994L583.501 568.183C581.56 565.832 579.418 564.001 577.073 562.689C574.709 561.347 572.214 560.502 569.585 560.155C566.957 559.808 564.261 559.961 561.496 560.614C558.761 561.249 556.061 562.382 553.397 564.015C548.582 566.965 545.121 570.731 543.014 575.312C540.889 579.863 540.233 585.013 541.048 590.761C541.844 596.478 544.219 602.562 548.17 609.011C552.234 615.642 556.632 620.611 561.364 623.916C566.127 627.203 571 628.903 575.983 629.015C580.966 629.126 585.804 627.744 590.497 624.869C593.132 623.254 595.356 621.413 597.17 619.343C599.014 617.255 600.406 615.007 601.346 612.599C602.267 610.16 602.709 607.619 602.672 604.976C602.666 602.315 602.129 599.604 601.062 596.843L621.011 584.744C623.112 589.328 624.349 594.235 624.72 599.463C625.103 604.642 624.525 609.849 622.984 615.083C621.455 620.268 618.87 625.225 615.229 629.955C611.6 634.636 606.804 638.804 600.839 642.459C592.542 647.542 583.973 650.211 575.133 650.464C566.322 650.698 557.844 648.417 549.699 643.621C541.584 638.806 534.429 631.342 528.232 621.229C522.016 611.085 518.636 601.287 518.091 591.833C517.546 582.38 519.403 573.788 523.661 566.056C527.901 558.293 534.108 551.908 542.283 546.898C547.673 543.596 553.133 541.291 558.663 539.985C564.223 538.66 569.681 538.357 575.035 539.074C580.37 539.761 585.438 541.508 590.24 544.313C595.071 547.1 599.456 550.994 603.394 555.994ZM616.527 503.154L673.524 596.171L654.176 608.027L597.179 515.01L616.527 503.154ZM721.378 568.722C714.323 573.045 707.304 575.285 700.319 575.442C693.347 575.549 686.817 573.762 680.728 570.079C674.622 566.366 669.379 560.937 665 553.791C660.584 546.584 658.118 539.433 657.601 532.336C657.066 525.209 658.438 518.579 661.719 512.446C665.011 506.264 670.184 501.012 677.239 496.689C684.294 492.366 691.308 490.15 698.281 490.043C705.265 489.886 711.81 491.664 717.917 495.377C724.005 499.06 729.257 504.505 733.673 511.711C738.052 518.857 740.509 525.993 741.044 533.12C741.561 540.217 740.173 546.856 736.881 553.038C733.601 559.171 728.433 564.399 721.378 568.722ZM712.285 553.679C715.495 551.712 717.618 549.162 718.654 546.028C719.672 542.863 719.752 539.357 718.894 535.51C718.066 531.644 716.409 527.683 713.923 523.625C711.437 519.568 708.66 516.293 705.591 513.8C702.553 511.289 699.393 509.768 696.112 509.238C692.83 508.709 689.585 509.427 686.375 511.394C683.135 513.379 680.976 515.973 679.897 519.174C678.849 522.357 678.739 525.881 679.567 529.747C680.425 533.594 682.097 537.546 684.583 541.604C687.069 545.661 689.831 548.946 692.869 551.457C695.938 553.95 699.128 555.452 702.44 555.963C705.764 556.425 709.045 555.664 712.285 553.679ZM794.948 453.174L777.903 465.118C776.672 463.79 775.186 462.826 773.445 462.227C771.685 461.598 769.765 461.421 767.684 461.696C765.616 461.922 763.461 462.722 761.22 464.095C758.223 465.932 756.084 468.117 754.804 470.65C753.506 473.153 753.497 475.45 754.777 477.539C755.798 479.204 757.327 480.204 759.364 480.538C761.401 480.873 764.253 480.395 767.92 479.106L782.105 473.913C789.741 471.15 796.17 470.292 801.393 471.34C806.617 472.387 810.768 475.424 813.848 480.45C816.65 485.023 817.761 489.86 817.181 494.963C816.631 500.048 814.619 504.988 811.143 509.783C807.68 514.529 802.92 518.757 796.864 522.468C787.629 528.127 779.093 530.713 771.256 530.226C763.431 529.69 757.008 526.378 751.988 520.292L770.406 507.632C772.707 510.095 775.417 511.392 778.536 511.521C781.637 511.62 784.914 510.612 788.365 508.497C791.757 506.419 794.083 504.098 795.344 501.534C796.617 498.922 796.628 496.562 795.378 494.454C794.272 492.716 792.649 491.733 790.509 491.503C788.351 491.243 785.572 491.738 782.173 492.988L768.617 497.983C760.969 500.795 754.45 501.541 749.06 500.221C743.7 498.883 739.424 495.609 736.233 490.401C733.487 485.92 732.333 481.317 732.77 476.593C733.237 471.85 735.143 467.247 738.488 462.781C741.863 458.298 746.533 454.229 752.498 450.574C761.309 445.174 769.384 442.788 776.723 443.414C784.092 444.021 790.167 447.274 794.948 453.174ZM871.907 476.485C864.731 480.883 857.663 483.214 850.704 483.48C843.757 483.697 837.249 481.979 831.179 478.327C825.091 474.644 819.792 469.124 815.284 461.766C810.887 454.59 808.42 447.438 807.885 440.312C807.35 433.185 808.682 426.558 811.884 420.432C815.115 414.287 820.152 409.118 826.996 404.925C831.598 402.105 836.337 400.221 841.213 399.274C846.1 398.278 850.927 398.34 855.694 399.459C860.492 400.559 865.087 402.825 869.479 406.255C873.854 409.655 877.859 414.323 881.495 420.258L884.752 425.572L825.844 461.668L818.497 449.677L859.192 424.741C857.485 421.955 855.367 419.859 852.838 418.451C850.31 417.043 847.6 416.393 844.708 416.499C841.828 416.556 838.979 417.447 836.164 419.173C833.226 420.973 831.04 423.25 829.604 426.004C828.18 428.709 827.527 431.587 827.647 434.637C827.748 437.657 828.628 440.554 830.286 443.328L837.272 454.728C839.387 458.179 841.85 460.772 844.662 462.506C847.504 464.222 850.523 465.037 853.72 464.952C856.916 464.868 860.135 463.833 863.375 461.847C865.524 460.53 867.307 459.021 868.722 457.321C870.138 455.621 871.11 453.776 871.64 451.785C872.169 449.795 872.229 447.717 871.819 445.553L890.438 435.769C892.164 440.625 892.602 445.521 891.753 450.456C890.916 455.342 888.834 460.033 885.508 464.528C882.193 468.974 877.66 472.96 871.907 476.485Z" fill="black"/>
</svg>
