<svg width="1515" height="993" viewBox="0 0 1515 993" fill="none" xmlns="http://www.w3.org/2000/svg">
<path d="M198.928 730.988C164.154 720.273 158.53 673.42 189.78 654.779L1174.2 67.5753C1191.86 57.0382 1214.56 60.8449 1227.82 76.5687L1371.83 247.323C1388.49 267.08 1383.52 297.055 1361.38 310.384L373.095 905.273C345.102 922.123 309.436 901.963 309.435 869.29L309.433 796.043C309.433 777.611 297.415 761.333 279.8 755.906L198.928 730.988Z" fill="#88A68D"/>
<path d="M558.365 666.735L501.368 573.718L521.035 561.668L546.166 602.681L547.392 601.929L555.734 540.405L579.307 525.961L570.309 588.761L636.712 618.728L613.185 633.144L564.272 610.514L561.834 628.251L578.031 654.685L558.365 666.735ZM673.689 597.944C666.513 602.342 659.445 604.673 652.486 604.939C645.539 605.156 639.031 603.438 632.961 599.786C626.873 596.103 621.575 590.583 617.066 583.225C612.669 576.049 610.203 568.897 609.667 561.771C609.132 554.644 610.465 548.017 613.666 541.891C616.897 535.746 621.935 530.577 628.778 526.384C633.38 523.563 638.119 521.68 642.995 520.733C647.882 519.737 652.709 519.799 657.476 520.918C662.274 522.018 666.869 524.283 671.262 527.714C675.636 531.114 679.641 535.782 683.278 541.717L686.534 547.031L627.626 583.127L620.279 571.136L660.974 546.2C659.267 543.414 657.149 541.318 654.621 539.91C652.092 538.502 649.382 537.852 646.49 537.958C643.61 538.015 640.762 538.906 637.946 540.632C635.009 542.432 632.822 544.709 631.386 547.463C629.962 550.168 629.31 553.046 629.429 556.096C629.531 559.116 630.41 562.013 632.068 564.787L639.054 576.187C641.169 579.638 643.632 582.231 646.444 583.965C649.286 585.68 652.305 586.496 655.502 586.411C658.699 586.327 661.917 585.292 665.157 583.306C667.306 581.989 669.089 580.48 670.504 578.78C671.92 577.08 672.892 575.235 673.422 573.244C673.952 571.254 674.011 569.176 673.601 567.012L692.22 557.228C693.946 562.084 694.385 566.98 693.535 571.915C692.698 576.801 690.616 581.492 687.29 585.987C683.976 590.433 679.442 594.419 673.689 597.944ZM743.602 589.214C741.15 590.717 738.728 591.93 736.337 592.854C733.995 593.789 731.951 594.396 730.206 594.674L725.716 577.559C728.413 576.864 730.689 575.99 732.543 574.938C734.427 573.867 735.757 572.469 736.533 570.744C737.339 569.001 737.497 566.779 737.009 564.08L736.336 560.432L667.338 504.005L687.686 491.537L733.522 533.919L734.248 533.474L717.435 473.308L737.919 460.756L758.171 554.674C759.17 559.226 759.402 563.581 758.869 567.74C758.384 571.91 756.909 575.792 754.446 579.384C752.001 583.006 748.386 586.283 743.602 589.214ZM790.931 524.23L733.934 431.212L753.282 419.357L774.712 454.329L775.302 453.967C775 451.57 775.057 448.911 775.474 445.99C775.904 443.02 777.021 440.086 778.827 437.189C780.645 434.242 783.507 431.572 787.413 429.179C792.5 426.062 798.01 424.518 803.942 424.548C809.856 424.548 815.732 426.424 821.572 430.176C827.392 433.898 832.752 439.755 837.65 447.749C842.418 455.531 845.187 462.871 845.958 469.771C846.741 476.621 845.827 482.741 843.215 488.131C840.616 493.473 836.667 497.767 831.368 501.013C827.613 503.314 824.038 504.651 820.643 505.024C817.279 505.378 814.189 505.126 811.373 504.269C808.539 503.382 806.089 502.239 804.023 500.839L803.16 501.368L810.007 512.541L790.931 524.23ZM788.497 477.743C791.038 481.891 793.831 485.157 796.874 487.54C799.917 489.924 803.057 491.311 806.295 491.701C809.514 492.06 812.683 491.285 815.802 489.374C818.951 487.444 821.087 484.948 822.209 481.887C823.313 478.795 823.479 475.361 822.707 471.586C821.946 467.762 820.323 463.822 817.837 459.764C815.369 455.737 812.638 452.538 809.644 450.166C806.65 447.795 803.534 446.414 800.296 446.024C797.059 445.634 793.85 446.413 790.671 448.361C787.522 450.29 785.368 452.756 784.208 455.757C783.079 458.74 782.875 462.112 783.599 465.876C784.322 469.639 785.955 473.595 788.497 477.743ZM904.233 456.677C897.178 461 890.159 463.24 883.174 463.396C876.202 463.504 869.672 461.716 863.583 458.034C857.477 454.321 852.234 448.891 847.855 441.745C843.439 434.539 840.973 427.387 840.456 420.291C839.921 413.164 841.293 406.534 844.574 400.401C847.866 394.219 853.039 388.966 860.094 384.643C867.149 380.32 874.163 378.105 881.136 377.997C888.12 377.841 894.665 379.619 900.772 383.332C906.86 387.015 912.112 392.459 916.528 399.666C920.907 406.812 923.364 413.948 923.899 421.075C924.416 428.171 923.028 434.811 919.736 440.993C916.456 447.126 911.288 452.354 904.233 456.677ZM895.14 441.633C898.35 439.667 900.473 437.116 901.509 433.982C902.527 430.818 902.607 427.312 901.749 423.465C900.922 419.599 899.265 415.637 896.778 411.58C894.292 407.523 891.515 404.248 888.446 401.755C885.408 399.243 882.248 397.723 878.967 397.193C875.685 396.663 872.44 397.382 869.23 399.349C865.99 401.334 863.831 403.927 862.752 407.129C861.704 410.312 861.594 413.836 862.422 417.702C863.28 421.549 864.952 425.501 867.438 429.559C869.924 433.616 872.686 436.9 875.725 439.412C878.793 441.904 881.983 443.406 885.295 443.918C888.619 444.38 891.9 443.619 895.14 441.633ZM971.016 415.693C966.565 418.42 962.126 420.079 957.697 420.668C953.25 421.227 949.076 420.599 945.173 418.784C941.282 416.92 937.927 413.687 935.106 409.085C932.732 405.209 931.449 401.518 931.258 398.012C931.067 394.506 931.706 391.199 933.175 388.091C934.644 384.983 936.688 382.065 939.305 379.337C941.954 376.59 944.901 373.992 948.149 371.544C951.947 368.634 954.976 366.236 957.236 364.352C959.478 362.436 960.927 360.757 961.583 359.314C962.24 357.87 962.113 356.407 961.204 354.923L961.037 354.651C959.275 351.774 957.003 350.105 954.221 349.644C951.47 349.164 948.444 349.935 945.144 351.958C941.661 354.091 939.364 356.561 938.251 359.367C937.12 362.143 936.926 364.885 937.67 367.594L918.885 377.106C917.196 372.311 916.737 367.552 917.509 362.831C918.263 358.079 920.234 353.582 923.422 349.337C926.622 345.044 931.008 341.191 936.579 337.777C940.455 335.402 944.442 333.583 948.542 332.321C952.671 331.04 956.698 330.509 960.622 330.728C964.577 330.929 968.275 332.036 971.717 334.051C975.14 336.035 978.122 339.101 980.664 343.249L1009.5 390.303L991.147 401.546L985.219 391.872L984.674 392.206C984.89 395.072 984.569 397.914 983.712 400.729C982.837 403.515 981.37 406.184 979.31 408.737C977.233 411.259 974.468 413.578 971.016 415.693ZM968.375 398.945C971.221 397.201 973.391 395.101 974.885 392.644C976.36 390.158 977.124 387.565 977.178 384.867C977.232 382.168 976.508 379.593 975.005 377.14L970.469 369.737C970.104 370.502 969.494 371.375 968.639 372.358C967.795 373.291 966.805 374.293 965.67 375.363C964.517 376.404 963.354 377.428 962.182 378.438C960.991 379.418 959.912 380.308 958.945 381.109C956.878 382.833 955.22 384.578 953.97 386.344C952.719 388.11 952.005 389.901 951.827 391.717C951.631 393.504 952.089 395.305 953.202 397.122C954.816 399.756 957.004 401.185 959.765 401.409C962.538 401.585 965.408 400.763 968.375 398.945ZM1024.51 381.105L981.759 311.342L1000.52 299.848L1007.98 312.02L1008.7 311.575C1007.32 306.466 1007.45 301.887 1009.1 297.84C1010.72 293.763 1013.49 290.527 1017.39 288.134C1018.36 287.54 1019.44 286.961 1020.64 286.395C1021.83 285.83 1022.92 285.393 1023.89 285.086L1034.41 302.254C1033.34 302.538 1031.93 303.066 1030.2 303.837C1028.46 304.609 1026.93 305.403 1025.6 306.219C1022.75 307.963 1020.59 310.142 1019.11 312.757C1017.64 315.322 1016.92 318.094 1016.96 321.072C1017.02 324.031 1017.93 326.934 1019.67 329.78L1043.86 369.249L1024.51 381.105ZM1100 336.41C1094.7 339.657 1089.06 341.235 1083.09 341.145C1077.14 341.006 1071.27 339.041 1065.49 335.252C1059.72 331.414 1054.45 325.604 1049.69 317.823C1044.79 309.829 1042 302.394 1041.33 295.518C1040.64 288.612 1041.62 282.534 1044.27 277.284C1046.94 271.984 1050.83 267.767 1055.95 264.631C1059.86 262.238 1063.52 260.91 1066.94 260.646C1070.37 260.334 1073.49 260.67 1076.3 261.655C1079.13 262.591 1081.54 263.738 1083.54 265.096L1084.13 264.734L1062.7 229.762L1082 217.934L1139 310.951L1119.92 322.64L1113.07 311.467L1112.26 311.968C1112.54 314.462 1112.43 317.174 1111.93 320.102C1111.45 322.981 1110.27 325.848 1108.39 328.704C1106.55 331.541 1103.75 334.11 1100 336.41ZM1096.69 317.256C1099.81 315.345 1101.93 312.883 1103.04 309.87C1104.16 306.809 1104.35 303.381 1103.61 299.588C1102.9 295.775 1101.27 291.795 1098.73 287.647C1096.19 283.499 1093.4 280.248 1090.38 277.895C1087.35 275.542 1084.24 274.201 1081.04 273.871C1077.84 273.542 1074.68 274.332 1071.56 276.243C1068.38 278.192 1066.23 280.696 1065.11 283.758C1063.99 286.82 1063.8 290.223 1064.56 293.968C1065.31 297.713 1066.92 301.598 1069.39 305.626C1071.87 309.683 1074.63 312.928 1077.66 315.36C1080.71 317.743 1083.84 319.155 1087.07 319.593C1090.3 319.984 1093.51 319.204 1096.69 317.256Z" fill="black"/>
</svg>
